<mxfile host="app.diagrams.net" modified="2024-04-23T04:12:10.132Z" agent="Mozilla/5.0 (Windows NT 10.0; Win64; x64) AppleWebKit/537.36 (KHTML, like Gecko) Chrome/123.0.0.0 Safari/537.36" etag="Cii9iPCde4P34OBiUQvu" version="24.2.8" type="github">
  <diagram name="Page-1" id="lfiQdX0oGISG3ipMav6U">
    <mxGraphModel dx="2438" dy="824" grid="1" gridSize="10" guides="1" tooltips="1" connect="1" arrows="1" fold="1" page="1" pageScale="1" pageWidth="850" pageHeight="1100" math="0" shadow="0">
      <root>
        <mxCell id="0" />
        <mxCell id="1" parent="0" />
        <mxCell id="bkDsG9jTJpN1onc-frGA-1" value="`carts`" style="shape=table;startSize=30;container=1;collapsible=1;childLayout=tableLayout;fixedRows=1;rowLines=0;fontStyle=1;align=center;resizeLast=1;fontSize=16;" parent="1" vertex="1">
          <mxGeometry x="-550" y="610" width="460" height="240" as="geometry" />
        </mxCell>
        <mxCell id="bkDsG9jTJpN1onc-frGA-2" value="" style="shape=tableRow;horizontal=0;startSize=0;swimlaneHead=0;swimlaneBody=0;fillColor=none;collapsible=0;dropTarget=0;points=[[0,0.5],[1,0.5]];portConstraint=eastwest;strokeColor=inherit;top=0;left=0;right=0;bottom=1;fontSize=16;" parent="bkDsG9jTJpN1onc-frGA-1" vertex="1">
          <mxGeometry y="30" width="460" height="30" as="geometry" />
        </mxCell>
        <mxCell id="bkDsG9jTJpN1onc-frGA-3" value="PK" style="shape=partialRectangle;overflow=hidden;connectable=0;fillColor=none;strokeColor=inherit;top=0;left=0;bottom=0;right=0;fontStyle=1;fontSize=16;" parent="bkDsG9jTJpN1onc-frGA-2" vertex="1">
          <mxGeometry width="30" height="30" as="geometry">
            <mxRectangle width="30" height="30" as="alternateBounds" />
          </mxGeometry>
        </mxCell>
        <mxCell id="bkDsG9jTJpN1onc-frGA-4" value="`id` bigint(20) unsigned NOT NULL AUTO_INCREMENT" style="shape=partialRectangle;overflow=hidden;connectable=0;fillColor=none;align=left;strokeColor=inherit;top=0;left=0;bottom=0;right=0;spacingLeft=6;fontStyle=5;fontSize=16;" parent="bkDsG9jTJpN1onc-frGA-2" vertex="1">
          <mxGeometry x="30" width="430" height="30" as="geometry">
            <mxRectangle width="430" height="30" as="alternateBounds" />
          </mxGeometry>
        </mxCell>
        <mxCell id="bkDsG9jTJpN1onc-frGA-5" value="" style="shape=tableRow;horizontal=0;startSize=0;swimlaneHead=0;swimlaneBody=0;fillColor=none;collapsible=0;dropTarget=0;points=[[0,0.5],[1,0.5]];portConstraint=eastwest;strokeColor=inherit;top=0;left=0;right=0;bottom=0;fontSize=16;" parent="bkDsG9jTJpN1onc-frGA-1" vertex="1">
          <mxGeometry y="60" width="460" height="30" as="geometry" />
        </mxCell>
        <mxCell id="bkDsG9jTJpN1onc-frGA-6" value="" style="shape=partialRectangle;overflow=hidden;connectable=0;fillColor=none;strokeColor=inherit;top=0;left=0;bottom=0;right=0;fontSize=16;" parent="bkDsG9jTJpN1onc-frGA-5" vertex="1">
          <mxGeometry width="30" height="30" as="geometry">
            <mxRectangle width="30" height="30" as="alternateBounds" />
          </mxGeometry>
        </mxCell>
        <mxCell id="bkDsG9jTJpN1onc-frGA-7" value="`customer_id` bigint(20) unsigned NOT NULL" style="shape=partialRectangle;overflow=hidden;connectable=0;fillColor=none;align=left;strokeColor=inherit;top=0;left=0;bottom=0;right=0;spacingLeft=6;fontSize=16;" parent="bkDsG9jTJpN1onc-frGA-5" vertex="1">
          <mxGeometry x="30" width="430" height="30" as="geometry">
            <mxRectangle width="430" height="30" as="alternateBounds" />
          </mxGeometry>
        </mxCell>
        <mxCell id="bkDsG9jTJpN1onc-frGA-8" value="" style="shape=tableRow;horizontal=0;startSize=0;swimlaneHead=0;swimlaneBody=0;fillColor=none;collapsible=0;dropTarget=0;points=[[0,0.5],[1,0.5]];portConstraint=eastwest;strokeColor=inherit;top=0;left=0;right=0;bottom=0;fontSize=16;" parent="bkDsG9jTJpN1onc-frGA-1" vertex="1">
          <mxGeometry y="90" width="460" height="30" as="geometry" />
        </mxCell>
        <mxCell id="bkDsG9jTJpN1onc-frGA-9" value="" style="shape=partialRectangle;overflow=hidden;connectable=0;fillColor=none;strokeColor=inherit;top=0;left=0;bottom=0;right=0;fontSize=16;" parent="bkDsG9jTJpN1onc-frGA-8" vertex="1">
          <mxGeometry width="30" height="30" as="geometry">
            <mxRectangle width="30" height="30" as="alternateBounds" />
          </mxGeometry>
        </mxCell>
        <mxCell id="bkDsG9jTJpN1onc-frGA-10" value="`product_id` bigint(20) unsigned NOT NULL" style="shape=partialRectangle;overflow=hidden;connectable=0;fillColor=none;align=left;strokeColor=inherit;top=0;left=0;bottom=0;right=0;spacingLeft=6;fontSize=16;" parent="bkDsG9jTJpN1onc-frGA-8" vertex="1">
          <mxGeometry x="30" width="430" height="30" as="geometry">
            <mxRectangle width="430" height="30" as="alternateBounds" />
          </mxGeometry>
        </mxCell>
        <mxCell id="bkDsG9jTJpN1onc-frGA-11" value="" style="shape=tableRow;horizontal=0;startSize=0;swimlaneHead=0;swimlaneBody=0;fillColor=none;collapsible=0;dropTarget=0;points=[[0,0.5],[1,0.5]];portConstraint=eastwest;strokeColor=inherit;top=0;left=0;right=0;bottom=0;fontSize=16;" parent="bkDsG9jTJpN1onc-frGA-1" vertex="1">
          <mxGeometry y="120" width="460" height="30" as="geometry" />
        </mxCell>
        <mxCell id="bkDsG9jTJpN1onc-frGA-12" value="" style="shape=partialRectangle;overflow=hidden;connectable=0;fillColor=none;strokeColor=inherit;top=0;left=0;bottom=0;right=0;fontSize=16;" parent="bkDsG9jTJpN1onc-frGA-11" vertex="1">
          <mxGeometry width="30" height="30" as="geometry">
            <mxRectangle width="30" height="30" as="alternateBounds" />
          </mxGeometry>
        </mxCell>
        <mxCell id="bkDsG9jTJpN1onc-frGA-13" value="`stock` int(11) NOT NULL" style="shape=partialRectangle;overflow=hidden;connectable=0;fillColor=none;align=left;strokeColor=inherit;top=0;left=0;bottom=0;right=0;spacingLeft=6;fontSize=16;" parent="bkDsG9jTJpN1onc-frGA-11" vertex="1">
          <mxGeometry x="30" width="430" height="30" as="geometry">
            <mxRectangle width="430" height="30" as="alternateBounds" />
          </mxGeometry>
        </mxCell>
        <mxCell id="bkDsG9jTJpN1onc-frGA-14" value="" style="shape=tableRow;horizontal=0;startSize=0;swimlaneHead=0;swimlaneBody=0;fillColor=none;collapsible=0;dropTarget=0;points=[[0,0.5],[1,0.5]];portConstraint=eastwest;strokeColor=inherit;top=0;left=0;right=0;bottom=0;fontSize=16;" parent="bkDsG9jTJpN1onc-frGA-1" vertex="1">
          <mxGeometry y="150" width="460" height="30" as="geometry" />
        </mxCell>
        <mxCell id="bkDsG9jTJpN1onc-frGA-15" value="" style="shape=partialRectangle;overflow=hidden;connectable=0;fillColor=none;strokeColor=inherit;top=0;left=0;bottom=0;right=0;fontSize=16;" parent="bkDsG9jTJpN1onc-frGA-14" vertex="1">
          <mxGeometry width="30" height="30" as="geometry">
            <mxRectangle width="30" height="30" as="alternateBounds" />
          </mxGeometry>
        </mxCell>
        <mxCell id="bkDsG9jTJpN1onc-frGA-16" value="`status` tinyint(1) NOT NULL DEFAULT 0" style="shape=partialRectangle;overflow=hidden;connectable=0;fillColor=none;align=left;strokeColor=inherit;top=0;left=0;bottom=0;right=0;spacingLeft=6;fontSize=16;" parent="bkDsG9jTJpN1onc-frGA-14" vertex="1">
          <mxGeometry x="30" width="430" height="30" as="geometry">
            <mxRectangle width="430" height="30" as="alternateBounds" />
          </mxGeometry>
        </mxCell>
        <mxCell id="bkDsG9jTJpN1onc-frGA-17" value="" style="shape=tableRow;horizontal=0;startSize=0;swimlaneHead=0;swimlaneBody=0;fillColor=none;collapsible=0;dropTarget=0;points=[[0,0.5],[1,0.5]];portConstraint=eastwest;strokeColor=inherit;top=0;left=0;right=0;bottom=0;fontSize=16;" parent="bkDsG9jTJpN1onc-frGA-1" vertex="1">
          <mxGeometry y="180" width="460" height="30" as="geometry" />
        </mxCell>
        <mxCell id="bkDsG9jTJpN1onc-frGA-18" value="" style="shape=partialRectangle;overflow=hidden;connectable=0;fillColor=none;strokeColor=inherit;top=0;left=0;bottom=0;right=0;fontSize=16;" parent="bkDsG9jTJpN1onc-frGA-17" vertex="1">
          <mxGeometry width="30" height="30" as="geometry">
            <mxRectangle width="30" height="30" as="alternateBounds" />
          </mxGeometry>
        </mxCell>
        <mxCell id="bkDsG9jTJpN1onc-frGA-19" value="`created_at` timestamp NULL DEFAULT NULL" style="shape=partialRectangle;overflow=hidden;connectable=0;fillColor=none;align=left;strokeColor=inherit;top=0;left=0;bottom=0;right=0;spacingLeft=6;fontSize=16;" parent="bkDsG9jTJpN1onc-frGA-17" vertex="1">
          <mxGeometry x="30" width="430" height="30" as="geometry">
            <mxRectangle width="430" height="30" as="alternateBounds" />
          </mxGeometry>
        </mxCell>
        <mxCell id="bkDsG9jTJpN1onc-frGA-20" value="" style="shape=tableRow;horizontal=0;startSize=0;swimlaneHead=0;swimlaneBody=0;fillColor=none;collapsible=0;dropTarget=0;points=[[0,0.5],[1,0.5]];portConstraint=eastwest;strokeColor=inherit;top=0;left=0;right=0;bottom=0;fontSize=16;" parent="bkDsG9jTJpN1onc-frGA-1" vertex="1">
          <mxGeometry y="210" width="460" height="30" as="geometry" />
        </mxCell>
        <mxCell id="bkDsG9jTJpN1onc-frGA-21" value="" style="shape=partialRectangle;overflow=hidden;connectable=0;fillColor=none;strokeColor=inherit;top=0;left=0;bottom=0;right=0;fontSize=16;" parent="bkDsG9jTJpN1onc-frGA-20" vertex="1">
          <mxGeometry width="30" height="30" as="geometry">
            <mxRectangle width="30" height="30" as="alternateBounds" />
          </mxGeometry>
        </mxCell>
        <mxCell id="bkDsG9jTJpN1onc-frGA-22" value="`updated_at` timestamp NULL DEFAULT NULL" style="shape=partialRectangle;overflow=hidden;connectable=0;fillColor=none;align=left;strokeColor=inherit;top=0;left=0;bottom=0;right=0;spacingLeft=6;fontSize=16;" parent="bkDsG9jTJpN1onc-frGA-20" vertex="1">
          <mxGeometry x="30" width="430" height="30" as="geometry">
            <mxRectangle width="430" height="30" as="alternateBounds" />
          </mxGeometry>
        </mxCell>
        <mxCell id="bkDsG9jTJpN1onc-frGA-35" value="`customers`" style="shape=table;startSize=30;container=1;collapsible=1;childLayout=tableLayout;fixedRows=1;rowLines=0;fontStyle=1;align=center;resizeLast=1;fontSize=16;" parent="1" vertex="1">
          <mxGeometry x="265" y="180" width="320" height="420" as="geometry" />
        </mxCell>
        <mxCell id="bkDsG9jTJpN1onc-frGA-36" value="" style="shape=tableRow;horizontal=0;startSize=0;swimlaneHead=0;swimlaneBody=0;fillColor=none;collapsible=0;dropTarget=0;points=[[0,0.5],[1,0.5]];portConstraint=eastwest;strokeColor=inherit;top=0;left=0;right=0;bottom=1;fontSize=16;" parent="bkDsG9jTJpN1onc-frGA-35" vertex="1">
          <mxGeometry y="30" width="320" height="30" as="geometry" />
        </mxCell>
        <mxCell id="bkDsG9jTJpN1onc-frGA-37" value="PK" style="shape=partialRectangle;overflow=hidden;connectable=0;fillColor=none;strokeColor=inherit;top=0;left=0;bottom=0;right=0;fontStyle=1;fontSize=16;" parent="bkDsG9jTJpN1onc-frGA-36" vertex="1">
          <mxGeometry width="30" height="30" as="geometry">
            <mxRectangle width="30" height="30" as="alternateBounds" />
          </mxGeometry>
        </mxCell>
        <mxCell id="bkDsG9jTJpN1onc-frGA-38" value="`id` bigint(20) unsigned NOT NULL AUTO_INCREMENT" style="shape=partialRectangle;overflow=hidden;connectable=0;fillColor=none;align=left;strokeColor=inherit;top=0;left=0;bottom=0;right=0;spacingLeft=6;fontStyle=5;fontSize=16;" parent="bkDsG9jTJpN1onc-frGA-36" vertex="1">
          <mxGeometry x="30" width="290" height="30" as="geometry">
            <mxRectangle width="290" height="30" as="alternateBounds" />
          </mxGeometry>
        </mxCell>
        <mxCell id="bkDsG9jTJpN1onc-frGA-39" value="" style="shape=tableRow;horizontal=0;startSize=0;swimlaneHead=0;swimlaneBody=0;fillColor=none;collapsible=0;dropTarget=0;points=[[0,0.5],[1,0.5]];portConstraint=eastwest;strokeColor=inherit;top=0;left=0;right=0;bottom=0;fontSize=16;" parent="bkDsG9jTJpN1onc-frGA-35" vertex="1">
          <mxGeometry y="60" width="320" height="30" as="geometry" />
        </mxCell>
        <mxCell id="bkDsG9jTJpN1onc-frGA-40" value="" style="shape=partialRectangle;overflow=hidden;connectable=0;fillColor=none;strokeColor=inherit;top=0;left=0;bottom=0;right=0;fontSize=16;" parent="bkDsG9jTJpN1onc-frGA-39" vertex="1">
          <mxGeometry width="30" height="30" as="geometry">
            <mxRectangle width="30" height="30" as="alternateBounds" />
          </mxGeometry>
        </mxCell>
        <mxCell id="bkDsG9jTJpN1onc-frGA-41" value="`user_id` bigint(20) unsigned NOT NULL" style="shape=partialRectangle;overflow=hidden;connectable=0;fillColor=none;align=left;strokeColor=inherit;top=0;left=0;bottom=0;right=0;spacingLeft=6;fontSize=16;" parent="bkDsG9jTJpN1onc-frGA-39" vertex="1">
          <mxGeometry x="30" width="290" height="30" as="geometry">
            <mxRectangle width="290" height="30" as="alternateBounds" />
          </mxGeometry>
        </mxCell>
        <mxCell id="bkDsG9jTJpN1onc-frGA-42" value="" style="shape=tableRow;horizontal=0;startSize=0;swimlaneHead=0;swimlaneBody=0;fillColor=none;collapsible=0;dropTarget=0;points=[[0,0.5],[1,0.5]];portConstraint=eastwest;strokeColor=inherit;top=0;left=0;right=0;bottom=0;fontSize=16;" parent="bkDsG9jTJpN1onc-frGA-35" vertex="1">
          <mxGeometry y="90" width="320" height="30" as="geometry" />
        </mxCell>
        <mxCell id="bkDsG9jTJpN1onc-frGA-43" value="" style="shape=partialRectangle;overflow=hidden;connectable=0;fillColor=none;strokeColor=inherit;top=0;left=0;bottom=0;right=0;fontSize=16;" parent="bkDsG9jTJpN1onc-frGA-42" vertex="1">
          <mxGeometry width="30" height="30" as="geometry">
            <mxRectangle width="30" height="30" as="alternateBounds" />
          </mxGeometry>
        </mxCell>
        <mxCell id="bkDsG9jTJpN1onc-frGA-44" value="`code` varchar(191) NOT NULL" style="shape=partialRectangle;overflow=hidden;connectable=0;fillColor=none;align=left;strokeColor=inherit;top=0;left=0;bottom=0;right=0;spacingLeft=6;fontSize=16;" parent="bkDsG9jTJpN1onc-frGA-42" vertex="1">
          <mxGeometry x="30" width="290" height="30" as="geometry">
            <mxRectangle width="290" height="30" as="alternateBounds" />
          </mxGeometry>
        </mxCell>
        <mxCell id="bkDsG9jTJpN1onc-frGA-45" value="" style="shape=tableRow;horizontal=0;startSize=0;swimlaneHead=0;swimlaneBody=0;fillColor=none;collapsible=0;dropTarget=0;points=[[0,0.5],[1,0.5]];portConstraint=eastwest;strokeColor=inherit;top=0;left=0;right=0;bottom=0;fontSize=16;" parent="bkDsG9jTJpN1onc-frGA-35" vertex="1">
          <mxGeometry y="120" width="320" height="30" as="geometry" />
        </mxCell>
        <mxCell id="bkDsG9jTJpN1onc-frGA-46" value="" style="shape=partialRectangle;overflow=hidden;connectable=0;fillColor=none;strokeColor=inherit;top=0;left=0;bottom=0;right=0;fontSize=16;" parent="bkDsG9jTJpN1onc-frGA-45" vertex="1">
          <mxGeometry width="30" height="30" as="geometry">
            <mxRectangle width="30" height="30" as="alternateBounds" />
          </mxGeometry>
        </mxCell>
        <mxCell id="bkDsG9jTJpN1onc-frGA-47" value="`name` varchar(100) DEFAULT NULL" style="shape=partialRectangle;overflow=hidden;connectable=0;fillColor=none;align=left;strokeColor=inherit;top=0;left=0;bottom=0;right=0;spacingLeft=6;fontSize=16;" parent="bkDsG9jTJpN1onc-frGA-45" vertex="1">
          <mxGeometry x="30" width="290" height="30" as="geometry">
            <mxRectangle width="290" height="30" as="alternateBounds" />
          </mxGeometry>
        </mxCell>
        <mxCell id="bkDsG9jTJpN1onc-frGA-48" value="" style="shape=tableRow;horizontal=0;startSize=0;swimlaneHead=0;swimlaneBody=0;fillColor=none;collapsible=0;dropTarget=0;points=[[0,0.5],[1,0.5]];portConstraint=eastwest;strokeColor=inherit;top=0;left=0;right=0;bottom=0;fontSize=16;" parent="bkDsG9jTJpN1onc-frGA-35" vertex="1">
          <mxGeometry y="150" width="320" height="30" as="geometry" />
        </mxCell>
        <mxCell id="bkDsG9jTJpN1onc-frGA-49" value="" style="shape=partialRectangle;overflow=hidden;connectable=0;fillColor=none;strokeColor=inherit;top=0;left=0;bottom=0;right=0;fontSize=16;" parent="bkDsG9jTJpN1onc-frGA-48" vertex="1">
          <mxGeometry width="30" height="30" as="geometry">
            <mxRectangle width="30" height="30" as="alternateBounds" />
          </mxGeometry>
        </mxCell>
        <mxCell id="bkDsG9jTJpN1onc-frGA-50" value="`date_of_birth` date DEFAULT NULL" style="shape=partialRectangle;overflow=hidden;connectable=0;fillColor=none;align=left;strokeColor=inherit;top=0;left=0;bottom=0;right=0;spacingLeft=6;fontSize=16;" parent="bkDsG9jTJpN1onc-frGA-48" vertex="1">
          <mxGeometry x="30" width="290" height="30" as="geometry">
            <mxRectangle width="290" height="30" as="alternateBounds" />
          </mxGeometry>
        </mxCell>
        <mxCell id="bkDsG9jTJpN1onc-frGA-51" value="" style="shape=tableRow;horizontal=0;startSize=0;swimlaneHead=0;swimlaneBody=0;fillColor=none;collapsible=0;dropTarget=0;points=[[0,0.5],[1,0.5]];portConstraint=eastwest;strokeColor=inherit;top=0;left=0;right=0;bottom=0;fontSize=16;" parent="bkDsG9jTJpN1onc-frGA-35" vertex="1">
          <mxGeometry y="180" width="320" height="30" as="geometry" />
        </mxCell>
        <mxCell id="bkDsG9jTJpN1onc-frGA-52" value="" style="shape=partialRectangle;overflow=hidden;connectable=0;fillColor=none;strokeColor=inherit;top=0;left=0;bottom=0;right=0;fontSize=16;" parent="bkDsG9jTJpN1onc-frGA-51" vertex="1">
          <mxGeometry width="30" height="30" as="geometry">
            <mxRectangle width="30" height="30" as="alternateBounds" />
          </mxGeometry>
        </mxCell>
        <mxCell id="bkDsG9jTJpN1onc-frGA-53" value="`image` varchar(191) DEFAULT NULL" style="shape=partialRectangle;overflow=hidden;connectable=0;fillColor=none;align=left;strokeColor=inherit;top=0;left=0;bottom=0;right=0;spacingLeft=6;fontSize=16;" parent="bkDsG9jTJpN1onc-frGA-51" vertex="1">
          <mxGeometry x="30" width="290" height="30" as="geometry">
            <mxRectangle width="290" height="30" as="alternateBounds" />
          </mxGeometry>
        </mxCell>
        <mxCell id="bkDsG9jTJpN1onc-frGA-54" value="" style="shape=tableRow;horizontal=0;startSize=0;swimlaneHead=0;swimlaneBody=0;fillColor=none;collapsible=0;dropTarget=0;points=[[0,0.5],[1,0.5]];portConstraint=eastwest;strokeColor=inherit;top=0;left=0;right=0;bottom=0;fontSize=16;" parent="bkDsG9jTJpN1onc-frGA-35" vertex="1">
          <mxGeometry y="210" width="320" height="30" as="geometry" />
        </mxCell>
        <mxCell id="bkDsG9jTJpN1onc-frGA-55" value="" style="shape=partialRectangle;overflow=hidden;connectable=0;fillColor=none;strokeColor=inherit;top=0;left=0;bottom=0;right=0;fontSize=16;" parent="bkDsG9jTJpN1onc-frGA-54" vertex="1">
          <mxGeometry width="30" height="30" as="geometry">
            <mxRectangle width="30" height="30" as="alternateBounds" />
          </mxGeometry>
        </mxCell>
        <mxCell id="bkDsG9jTJpN1onc-frGA-56" value="`location` varchar(191) DEFAULT NULL" style="shape=partialRectangle;overflow=hidden;connectable=0;fillColor=none;align=left;strokeColor=inherit;top=0;left=0;bottom=0;right=0;spacingLeft=6;fontSize=16;" parent="bkDsG9jTJpN1onc-frGA-54" vertex="1">
          <mxGeometry x="30" width="290" height="30" as="geometry">
            <mxRectangle width="290" height="30" as="alternateBounds" />
          </mxGeometry>
        </mxCell>
        <mxCell id="bkDsG9jTJpN1onc-frGA-57" value="" style="shape=tableRow;horizontal=0;startSize=0;swimlaneHead=0;swimlaneBody=0;fillColor=none;collapsible=0;dropTarget=0;points=[[0,0.5],[1,0.5]];portConstraint=eastwest;strokeColor=inherit;top=0;left=0;right=0;bottom=0;fontSize=16;" parent="bkDsG9jTJpN1onc-frGA-35" vertex="1">
          <mxGeometry y="240" width="320" height="30" as="geometry" />
        </mxCell>
        <mxCell id="bkDsG9jTJpN1onc-frGA-58" value="" style="shape=partialRectangle;overflow=hidden;connectable=0;fillColor=none;strokeColor=inherit;top=0;left=0;bottom=0;right=0;fontSize=16;" parent="bkDsG9jTJpN1onc-frGA-57" vertex="1">
          <mxGeometry width="30" height="30" as="geometry">
            <mxRectangle width="30" height="30" as="alternateBounds" />
          </mxGeometry>
        </mxCell>
        <mxCell id="bkDsG9jTJpN1onc-frGA-59" value="`deleted_at` timestamp NULL DEFAULT NULL" style="shape=partialRectangle;overflow=hidden;connectable=0;fillColor=none;align=left;strokeColor=inherit;top=0;left=0;bottom=0;right=0;spacingLeft=6;fontSize=16;" parent="bkDsG9jTJpN1onc-frGA-57" vertex="1">
          <mxGeometry x="30" width="290" height="30" as="geometry">
            <mxRectangle width="290" height="30" as="alternateBounds" />
          </mxGeometry>
        </mxCell>
        <mxCell id="bkDsG9jTJpN1onc-frGA-60" value="" style="shape=tableRow;horizontal=0;startSize=0;swimlaneHead=0;swimlaneBody=0;fillColor=none;collapsible=0;dropTarget=0;points=[[0,0.5],[1,0.5]];portConstraint=eastwest;strokeColor=inherit;top=0;left=0;right=0;bottom=0;fontSize=16;" parent="bkDsG9jTJpN1onc-frGA-35" vertex="1">
          <mxGeometry y="270" width="320" height="30" as="geometry" />
        </mxCell>
        <mxCell id="bkDsG9jTJpN1onc-frGA-61" value="" style="shape=partialRectangle;overflow=hidden;connectable=0;fillColor=none;strokeColor=inherit;top=0;left=0;bottom=0;right=0;fontSize=16;" parent="bkDsG9jTJpN1onc-frGA-60" vertex="1">
          <mxGeometry width="30" height="30" as="geometry">
            <mxRectangle width="30" height="30" as="alternateBounds" />
          </mxGeometry>
        </mxCell>
        <mxCell id="bkDsG9jTJpN1onc-frGA-62" value="`created_at` timestamp NULL DEFAULT NULL" style="shape=partialRectangle;overflow=hidden;connectable=0;fillColor=none;align=left;strokeColor=inherit;top=0;left=0;bottom=0;right=0;spacingLeft=6;fontSize=16;" parent="bkDsG9jTJpN1onc-frGA-60" vertex="1">
          <mxGeometry x="30" width="290" height="30" as="geometry">
            <mxRectangle width="290" height="30" as="alternateBounds" />
          </mxGeometry>
        </mxCell>
        <mxCell id="bkDsG9jTJpN1onc-frGA-63" value="" style="shape=tableRow;horizontal=0;startSize=0;swimlaneHead=0;swimlaneBody=0;fillColor=none;collapsible=0;dropTarget=0;points=[[0,0.5],[1,0.5]];portConstraint=eastwest;strokeColor=inherit;top=0;left=0;right=0;bottom=0;fontSize=16;" parent="bkDsG9jTJpN1onc-frGA-35" vertex="1">
          <mxGeometry y="300" width="320" height="30" as="geometry" />
        </mxCell>
        <mxCell id="bkDsG9jTJpN1onc-frGA-64" value="" style="shape=partialRectangle;overflow=hidden;connectable=0;fillColor=none;strokeColor=inherit;top=0;left=0;bottom=0;right=0;fontSize=16;" parent="bkDsG9jTJpN1onc-frGA-63" vertex="1">
          <mxGeometry width="30" height="30" as="geometry">
            <mxRectangle width="30" height="30" as="alternateBounds" />
          </mxGeometry>
        </mxCell>
        <mxCell id="bkDsG9jTJpN1onc-frGA-65" value="`updated_at` timestamp NULL DEFAULT NULL" style="shape=partialRectangle;overflow=hidden;connectable=0;fillColor=none;align=left;strokeColor=inherit;top=0;left=0;bottom=0;right=0;spacingLeft=6;fontSize=16;" parent="bkDsG9jTJpN1onc-frGA-63" vertex="1">
          <mxGeometry x="30" width="290" height="30" as="geometry">
            <mxRectangle width="290" height="30" as="alternateBounds" />
          </mxGeometry>
        </mxCell>
        <mxCell id="bkDsG9jTJpN1onc-frGA-66" value="" style="shape=tableRow;horizontal=0;startSize=0;swimlaneHead=0;swimlaneBody=0;fillColor=none;collapsible=0;dropTarget=0;points=[[0,0.5],[1,0.5]];portConstraint=eastwest;strokeColor=inherit;top=0;left=0;right=0;bottom=0;fontSize=16;" parent="bkDsG9jTJpN1onc-frGA-35" vertex="1">
          <mxGeometry y="330" width="320" height="30" as="geometry" />
        </mxCell>
        <mxCell id="bkDsG9jTJpN1onc-frGA-67" value="" style="shape=partialRectangle;overflow=hidden;connectable=0;fillColor=none;strokeColor=inherit;top=0;left=0;bottom=0;right=0;fontSize=16;" parent="bkDsG9jTJpN1onc-frGA-66" vertex="1">
          <mxGeometry width="30" height="30" as="geometry">
            <mxRectangle width="30" height="30" as="alternateBounds" />
          </mxGeometry>
        </mxCell>
        <mxCell id="bkDsG9jTJpN1onc-frGA-68" value="UNIQUE KEY `customers_code_unique` (`code`)" style="shape=partialRectangle;overflow=hidden;connectable=0;fillColor=none;align=left;strokeColor=inherit;top=0;left=0;bottom=0;right=0;spacingLeft=6;fontSize=16;" parent="bkDsG9jTJpN1onc-frGA-66" vertex="1">
          <mxGeometry x="30" width="290" height="30" as="geometry">
            <mxRectangle width="290" height="30" as="alternateBounds" />
          </mxGeometry>
        </mxCell>
        <mxCell id="bkDsG9jTJpN1onc-frGA-69" value="" style="shape=tableRow;horizontal=0;startSize=0;swimlaneHead=0;swimlaneBody=0;fillColor=none;collapsible=0;dropTarget=0;points=[[0,0.5],[1,0.5]];portConstraint=eastwest;strokeColor=inherit;top=0;left=0;right=0;bottom=0;fontSize=16;" parent="bkDsG9jTJpN1onc-frGA-35" vertex="1">
          <mxGeometry y="360" width="320" height="30" as="geometry" />
        </mxCell>
        <mxCell id="bkDsG9jTJpN1onc-frGA-70" value="" style="shape=partialRectangle;overflow=hidden;connectable=0;fillColor=none;strokeColor=inherit;top=0;left=0;bottom=0;right=0;fontSize=16;" parent="bkDsG9jTJpN1onc-frGA-69" vertex="1">
          <mxGeometry width="30" height="30" as="geometry">
            <mxRectangle width="30" height="30" as="alternateBounds" />
          </mxGeometry>
        </mxCell>
        <mxCell id="bkDsG9jTJpN1onc-frGA-71" value="KEY `customers_user_id_foreign` (`user_id`)" style="shape=partialRectangle;overflow=hidden;connectable=0;fillColor=none;align=left;strokeColor=inherit;top=0;left=0;bottom=0;right=0;spacingLeft=6;fontSize=16;" parent="bkDsG9jTJpN1onc-frGA-69" vertex="1">
          <mxGeometry x="30" width="290" height="30" as="geometry">
            <mxRectangle width="290" height="30" as="alternateBounds" />
          </mxGeometry>
        </mxCell>
        <mxCell id="bkDsG9jTJpN1onc-frGA-72" value="" style="shape=tableRow;horizontal=0;startSize=0;swimlaneHead=0;swimlaneBody=0;fillColor=none;collapsible=0;dropTarget=0;points=[[0,0.5],[1,0.5]];portConstraint=eastwest;strokeColor=inherit;top=0;left=0;right=0;bottom=0;fontSize=16;" parent="bkDsG9jTJpN1onc-frGA-35" vertex="1">
          <mxGeometry y="390" width="320" height="30" as="geometry" />
        </mxCell>
        <mxCell id="bkDsG9jTJpN1onc-frGA-73" value="" style="shape=partialRectangle;overflow=hidden;connectable=0;fillColor=none;strokeColor=inherit;top=0;left=0;bottom=0;right=0;fontSize=16;" parent="bkDsG9jTJpN1onc-frGA-72" vertex="1">
          <mxGeometry width="30" height="30" as="geometry">
            <mxRectangle width="30" height="30" as="alternateBounds" />
          </mxGeometry>
        </mxCell>
        <mxCell id="bkDsG9jTJpN1onc-frGA-74" value="CONSTRAINT `customers_user_id_foreign` FOREIGN KEY (`user_id`) REFERENCES `users` (`id`) ON DELETE CASCADE" style="shape=partialRectangle;overflow=hidden;connectable=0;fillColor=none;align=left;strokeColor=inherit;top=0;left=0;bottom=0;right=0;spacingLeft=6;fontSize=16;" parent="bkDsG9jTJpN1onc-frGA-72" vertex="1">
          <mxGeometry x="30" width="290" height="30" as="geometry">
            <mxRectangle width="290" height="30" as="alternateBounds" />
          </mxGeometry>
        </mxCell>
        <mxCell id="bkDsG9jTJpN1onc-frGA-75" value="`products`" style="shape=table;startSize=30;container=1;collapsible=1;childLayout=tableLayout;fixedRows=1;rowLines=0;fontStyle=1;align=center;resizeLast=1;fontSize=16;" parent="1" vertex="1">
          <mxGeometry x="265" y="670" width="465" height="480" as="geometry" />
        </mxCell>
        <mxCell id="bkDsG9jTJpN1onc-frGA-76" value="" style="shape=tableRow;horizontal=0;startSize=0;swimlaneHead=0;swimlaneBody=0;fillColor=none;collapsible=0;dropTarget=0;points=[[0,0.5],[1,0.5]];portConstraint=eastwest;strokeColor=inherit;top=0;left=0;right=0;bottom=1;fontSize=16;" parent="bkDsG9jTJpN1onc-frGA-75" vertex="1">
          <mxGeometry y="30" width="465" height="30" as="geometry" />
        </mxCell>
        <mxCell id="bkDsG9jTJpN1onc-frGA-77" value="PK" style="shape=partialRectangle;overflow=hidden;connectable=0;fillColor=none;strokeColor=inherit;top=0;left=0;bottom=0;right=0;fontStyle=1;fontSize=16;" parent="bkDsG9jTJpN1onc-frGA-76" vertex="1">
          <mxGeometry width="30" height="30" as="geometry">
            <mxRectangle width="30" height="30" as="alternateBounds" />
          </mxGeometry>
        </mxCell>
        <mxCell id="bkDsG9jTJpN1onc-frGA-78" value="`id` bigint(20) unsigned NOT NULL AUTO_INCREMENT" style="shape=partialRectangle;overflow=hidden;connectable=0;fillColor=none;align=left;strokeColor=inherit;top=0;left=0;bottom=0;right=0;spacingLeft=6;fontStyle=5;fontSize=16;" parent="bkDsG9jTJpN1onc-frGA-76" vertex="1">
          <mxGeometry x="30" width="435" height="30" as="geometry">
            <mxRectangle width="435" height="30" as="alternateBounds" />
          </mxGeometry>
        </mxCell>
        <mxCell id="bkDsG9jTJpN1onc-frGA-79" value="" style="shape=tableRow;horizontal=0;startSize=0;swimlaneHead=0;swimlaneBody=0;fillColor=none;collapsible=0;dropTarget=0;points=[[0,0.5],[1,0.5]];portConstraint=eastwest;strokeColor=inherit;top=0;left=0;right=0;bottom=0;fontSize=16;" parent="bkDsG9jTJpN1onc-frGA-75" vertex="1">
          <mxGeometry y="60" width="465" height="30" as="geometry" />
        </mxCell>
        <mxCell id="bkDsG9jTJpN1onc-frGA-80" value="" style="shape=partialRectangle;overflow=hidden;connectable=0;fillColor=none;strokeColor=inherit;top=0;left=0;bottom=0;right=0;fontSize=16;" parent="bkDsG9jTJpN1onc-frGA-79" vertex="1">
          <mxGeometry width="30" height="30" as="geometry">
            <mxRectangle width="30" height="30" as="alternateBounds" />
          </mxGeometry>
        </mxCell>
        <mxCell id="bkDsG9jTJpN1onc-frGA-81" value="`company_id` bigint(20) unsigned NOT NULL" style="shape=partialRectangle;overflow=hidden;connectable=0;fillColor=none;align=left;strokeColor=inherit;top=0;left=0;bottom=0;right=0;spacingLeft=6;fontSize=16;" parent="bkDsG9jTJpN1onc-frGA-79" vertex="1">
          <mxGeometry x="30" width="435" height="30" as="geometry">
            <mxRectangle width="435" height="30" as="alternateBounds" />
          </mxGeometry>
        </mxCell>
        <mxCell id="bkDsG9jTJpN1onc-frGA-82" value="" style="shape=tableRow;horizontal=0;startSize=0;swimlaneHead=0;swimlaneBody=0;fillColor=none;collapsible=0;dropTarget=0;points=[[0,0.5],[1,0.5]];portConstraint=eastwest;strokeColor=inherit;top=0;left=0;right=0;bottom=0;fontSize=16;" parent="bkDsG9jTJpN1onc-frGA-75" vertex="1">
          <mxGeometry y="90" width="465" height="30" as="geometry" />
        </mxCell>
        <mxCell id="bkDsG9jTJpN1onc-frGA-83" value="" style="shape=partialRectangle;overflow=hidden;connectable=0;fillColor=none;strokeColor=inherit;top=0;left=0;bottom=0;right=0;fontSize=16;" parent="bkDsG9jTJpN1onc-frGA-82" vertex="1">
          <mxGeometry width="30" height="30" as="geometry">
            <mxRectangle width="30" height="30" as="alternateBounds" />
          </mxGeometry>
        </mxCell>
        <mxCell id="bkDsG9jTJpN1onc-frGA-84" value="`code` varchar(191) NOT NULL" style="shape=partialRectangle;overflow=hidden;connectable=0;fillColor=none;align=left;strokeColor=inherit;top=0;left=0;bottom=0;right=0;spacingLeft=6;fontSize=16;" parent="bkDsG9jTJpN1onc-frGA-82" vertex="1">
          <mxGeometry x="30" width="435" height="30" as="geometry">
            <mxRectangle width="435" height="30" as="alternateBounds" />
          </mxGeometry>
        </mxCell>
        <mxCell id="bkDsG9jTJpN1onc-frGA-85" value="" style="shape=tableRow;horizontal=0;startSize=0;swimlaneHead=0;swimlaneBody=0;fillColor=none;collapsible=0;dropTarget=0;points=[[0,0.5],[1,0.5]];portConstraint=eastwest;strokeColor=inherit;top=0;left=0;right=0;bottom=0;fontSize=16;" parent="bkDsG9jTJpN1onc-frGA-75" vertex="1">
          <mxGeometry y="120" width="465" height="30" as="geometry" />
        </mxCell>
        <mxCell id="bkDsG9jTJpN1onc-frGA-86" value="" style="shape=partialRectangle;overflow=hidden;connectable=0;fillColor=none;strokeColor=inherit;top=0;left=0;bottom=0;right=0;fontSize=16;" parent="bkDsG9jTJpN1onc-frGA-85" vertex="1">
          <mxGeometry width="30" height="30" as="geometry">
            <mxRectangle width="30" height="30" as="alternateBounds" />
          </mxGeometry>
        </mxCell>
        <mxCell id="bkDsG9jTJpN1onc-frGA-87" value="`name` varchar(191) NOT NULL" style="shape=partialRectangle;overflow=hidden;connectable=0;fillColor=none;align=left;strokeColor=inherit;top=0;left=0;bottom=0;right=0;spacingLeft=6;fontSize=16;" parent="bkDsG9jTJpN1onc-frGA-85" vertex="1">
          <mxGeometry x="30" width="435" height="30" as="geometry">
            <mxRectangle width="435" height="30" as="alternateBounds" />
          </mxGeometry>
        </mxCell>
        <mxCell id="bkDsG9jTJpN1onc-frGA-88" value="" style="shape=tableRow;horizontal=0;startSize=0;swimlaneHead=0;swimlaneBody=0;fillColor=none;collapsible=0;dropTarget=0;points=[[0,0.5],[1,0.5]];portConstraint=eastwest;strokeColor=inherit;top=0;left=0;right=0;bottom=0;fontSize=16;" parent="bkDsG9jTJpN1onc-frGA-75" vertex="1">
          <mxGeometry y="150" width="465" height="30" as="geometry" />
        </mxCell>
        <mxCell id="bkDsG9jTJpN1onc-frGA-89" value="" style="shape=partialRectangle;overflow=hidden;connectable=0;fillColor=none;strokeColor=inherit;top=0;left=0;bottom=0;right=0;fontSize=16;" parent="bkDsG9jTJpN1onc-frGA-88" vertex="1">
          <mxGeometry width="30" height="30" as="geometry">
            <mxRectangle width="30" height="30" as="alternateBounds" />
          </mxGeometry>
        </mxCell>
        <mxCell id="bkDsG9jTJpN1onc-frGA-90" value="`description` longtext DEFAULT NULL" style="shape=partialRectangle;overflow=hidden;connectable=0;fillColor=none;align=left;strokeColor=inherit;top=0;left=0;bottom=0;right=0;spacingLeft=6;fontSize=16;" parent="bkDsG9jTJpN1onc-frGA-88" vertex="1">
          <mxGeometry x="30" width="435" height="30" as="geometry">
            <mxRectangle width="435" height="30" as="alternateBounds" />
          </mxGeometry>
        </mxCell>
        <mxCell id="bkDsG9jTJpN1onc-frGA-91" value="" style="shape=tableRow;horizontal=0;startSize=0;swimlaneHead=0;swimlaneBody=0;fillColor=none;collapsible=0;dropTarget=0;points=[[0,0.5],[1,0.5]];portConstraint=eastwest;strokeColor=inherit;top=0;left=0;right=0;bottom=0;fontSize=16;" parent="bkDsG9jTJpN1onc-frGA-75" vertex="1">
          <mxGeometry y="180" width="465" height="30" as="geometry" />
        </mxCell>
        <mxCell id="bkDsG9jTJpN1onc-frGA-92" value="" style="shape=partialRectangle;overflow=hidden;connectable=0;fillColor=none;strokeColor=inherit;top=0;left=0;bottom=0;right=0;fontSize=16;" parent="bkDsG9jTJpN1onc-frGA-91" vertex="1">
          <mxGeometry width="30" height="30" as="geometry">
            <mxRectangle width="30" height="30" as="alternateBounds" />
          </mxGeometry>
        </mxCell>
        <mxCell id="bkDsG9jTJpN1onc-frGA-93" value="`length` decimal(8,2) NOT NULL" style="shape=partialRectangle;overflow=hidden;connectable=0;fillColor=none;align=left;strokeColor=inherit;top=0;left=0;bottom=0;right=0;spacingLeft=6;fontSize=16;" parent="bkDsG9jTJpN1onc-frGA-91" vertex="1">
          <mxGeometry x="30" width="435" height="30" as="geometry">
            <mxRectangle width="435" height="30" as="alternateBounds" />
          </mxGeometry>
        </mxCell>
        <mxCell id="bkDsG9jTJpN1onc-frGA-94" value="" style="shape=tableRow;horizontal=0;startSize=0;swimlaneHead=0;swimlaneBody=0;fillColor=none;collapsible=0;dropTarget=0;points=[[0,0.5],[1,0.5]];portConstraint=eastwest;strokeColor=inherit;top=0;left=0;right=0;bottom=0;fontSize=16;" parent="bkDsG9jTJpN1onc-frGA-75" vertex="1">
          <mxGeometry y="210" width="465" height="30" as="geometry" />
        </mxCell>
        <mxCell id="bkDsG9jTJpN1onc-frGA-95" value="" style="shape=partialRectangle;overflow=hidden;connectable=0;fillColor=none;strokeColor=inherit;top=0;left=0;bottom=0;right=0;fontSize=16;" parent="bkDsG9jTJpN1onc-frGA-94" vertex="1">
          <mxGeometry width="30" height="30" as="geometry">
            <mxRectangle width="30" height="30" as="alternateBounds" />
          </mxGeometry>
        </mxCell>
        <mxCell id="bkDsG9jTJpN1onc-frGA-96" value="`width` decimal(8,2) NOT NULL" style="shape=partialRectangle;overflow=hidden;connectable=0;fillColor=none;align=left;strokeColor=inherit;top=0;left=0;bottom=0;right=0;spacingLeft=6;fontSize=16;" parent="bkDsG9jTJpN1onc-frGA-94" vertex="1">
          <mxGeometry x="30" width="435" height="30" as="geometry">
            <mxRectangle width="435" height="30" as="alternateBounds" />
          </mxGeometry>
        </mxCell>
        <mxCell id="bkDsG9jTJpN1onc-frGA-97" value="" style="shape=tableRow;horizontal=0;startSize=0;swimlaneHead=0;swimlaneBody=0;fillColor=none;collapsible=0;dropTarget=0;points=[[0,0.5],[1,0.5]];portConstraint=eastwest;strokeColor=inherit;top=0;left=0;right=0;bottom=0;fontSize=16;" parent="bkDsG9jTJpN1onc-frGA-75" vertex="1">
          <mxGeometry y="240" width="465" height="30" as="geometry" />
        </mxCell>
        <mxCell id="bkDsG9jTJpN1onc-frGA-98" value="" style="shape=partialRectangle;overflow=hidden;connectable=0;fillColor=none;strokeColor=inherit;top=0;left=0;bottom=0;right=0;fontSize=16;" parent="bkDsG9jTJpN1onc-frGA-97" vertex="1">
          <mxGeometry width="30" height="30" as="geometry">
            <mxRectangle width="30" height="30" as="alternateBounds" />
          </mxGeometry>
        </mxCell>
        <mxCell id="bkDsG9jTJpN1onc-frGA-99" value="`height` decimal(8,2) NOT NULL" style="shape=partialRectangle;overflow=hidden;connectable=0;fillColor=none;align=left;strokeColor=inherit;top=0;left=0;bottom=0;right=0;spacingLeft=6;fontSize=16;" parent="bkDsG9jTJpN1onc-frGA-97" vertex="1">
          <mxGeometry x="30" width="435" height="30" as="geometry">
            <mxRectangle width="435" height="30" as="alternateBounds" />
          </mxGeometry>
        </mxCell>
        <mxCell id="bkDsG9jTJpN1onc-frGA-100" value="" style="shape=tableRow;horizontal=0;startSize=0;swimlaneHead=0;swimlaneBody=0;fillColor=none;collapsible=0;dropTarget=0;points=[[0,0.5],[1,0.5]];portConstraint=eastwest;strokeColor=inherit;top=0;left=0;right=0;bottom=0;fontSize=16;" parent="bkDsG9jTJpN1onc-frGA-75" vertex="1">
          <mxGeometry y="270" width="465" height="30" as="geometry" />
        </mxCell>
        <mxCell id="bkDsG9jTJpN1onc-frGA-101" value="" style="shape=partialRectangle;overflow=hidden;connectable=0;fillColor=none;strokeColor=inherit;top=0;left=0;bottom=0;right=0;fontSize=16;" parent="bkDsG9jTJpN1onc-frGA-100" vertex="1">
          <mxGeometry width="30" height="30" as="geometry">
            <mxRectangle width="30" height="30" as="alternateBounds" />
          </mxGeometry>
        </mxCell>
        <mxCell id="bkDsG9jTJpN1onc-frGA-102" value="`weight` decimal(8,2) NOT NULL" style="shape=partialRectangle;overflow=hidden;connectable=0;fillColor=none;align=left;strokeColor=inherit;top=0;left=0;bottom=0;right=0;spacingLeft=6;fontSize=16;" parent="bkDsG9jTJpN1onc-frGA-100" vertex="1">
          <mxGeometry x="30" width="435" height="30" as="geometry">
            <mxRectangle width="435" height="30" as="alternateBounds" />
          </mxGeometry>
        </mxCell>
        <mxCell id="bkDsG9jTJpN1onc-frGA-103" value="" style="shape=tableRow;horizontal=0;startSize=0;swimlaneHead=0;swimlaneBody=0;fillColor=none;collapsible=0;dropTarget=0;points=[[0,0.5],[1,0.5]];portConstraint=eastwest;strokeColor=inherit;top=0;left=0;right=0;bottom=0;fontSize=16;" parent="bkDsG9jTJpN1onc-frGA-75" vertex="1">
          <mxGeometry y="300" width="465" height="30" as="geometry" />
        </mxCell>
        <mxCell id="bkDsG9jTJpN1onc-frGA-104" value="" style="shape=partialRectangle;overflow=hidden;connectable=0;fillColor=none;strokeColor=inherit;top=0;left=0;bottom=0;right=0;fontSize=16;" parent="bkDsG9jTJpN1onc-frGA-103" vertex="1">
          <mxGeometry width="30" height="30" as="geometry">
            <mxRectangle width="30" height="30" as="alternateBounds" />
          </mxGeometry>
        </mxCell>
        <mxCell id="bkDsG9jTJpN1onc-frGA-105" value="`price` decimal(12,2) NOT NULL" style="shape=partialRectangle;overflow=hidden;connectable=0;fillColor=none;align=left;strokeColor=inherit;top=0;left=0;bottom=0;right=0;spacingLeft=6;fontSize=16;" parent="bkDsG9jTJpN1onc-frGA-103" vertex="1">
          <mxGeometry x="30" width="435" height="30" as="geometry">
            <mxRectangle width="435" height="30" as="alternateBounds" />
          </mxGeometry>
        </mxCell>
        <mxCell id="bkDsG9jTJpN1onc-frGA-106" value="" style="shape=tableRow;horizontal=0;startSize=0;swimlaneHead=0;swimlaneBody=0;fillColor=none;collapsible=0;dropTarget=0;points=[[0,0.5],[1,0.5]];portConstraint=eastwest;strokeColor=inherit;top=0;left=0;right=0;bottom=0;fontSize=16;" parent="bkDsG9jTJpN1onc-frGA-75" vertex="1">
          <mxGeometry y="330" width="465" height="30" as="geometry" />
        </mxCell>
        <mxCell id="bkDsG9jTJpN1onc-frGA-107" value="" style="shape=partialRectangle;overflow=hidden;connectable=0;fillColor=none;strokeColor=inherit;top=0;left=0;bottom=0;right=0;fontSize=16;" parent="bkDsG9jTJpN1onc-frGA-106" vertex="1">
          <mxGeometry width="30" height="30" as="geometry">
            <mxRectangle width="30" height="30" as="alternateBounds" />
          </mxGeometry>
        </mxCell>
        <mxCell id="bkDsG9jTJpN1onc-frGA-108" value="`stock` int(11) NOT NULL" style="shape=partialRectangle;overflow=hidden;connectable=0;fillColor=none;align=left;strokeColor=inherit;top=0;left=0;bottom=0;right=0;spacingLeft=6;fontSize=16;" parent="bkDsG9jTJpN1onc-frGA-106" vertex="1">
          <mxGeometry x="30" width="435" height="30" as="geometry">
            <mxRectangle width="435" height="30" as="alternateBounds" />
          </mxGeometry>
        </mxCell>
        <mxCell id="bkDsG9jTJpN1onc-frGA-109" value="" style="shape=tableRow;horizontal=0;startSize=0;swimlaneHead=0;swimlaneBody=0;fillColor=none;collapsible=0;dropTarget=0;points=[[0,0.5],[1,0.5]];portConstraint=eastwest;strokeColor=inherit;top=0;left=0;right=0;bottom=0;fontSize=16;" parent="bkDsG9jTJpN1onc-frGA-75" vertex="1">
          <mxGeometry y="360" width="465" height="30" as="geometry" />
        </mxCell>
        <mxCell id="bkDsG9jTJpN1onc-frGA-110" value="" style="shape=partialRectangle;overflow=hidden;connectable=0;fillColor=none;strokeColor=inherit;top=0;left=0;bottom=0;right=0;fontSize=16;" parent="bkDsG9jTJpN1onc-frGA-109" vertex="1">
          <mxGeometry width="30" height="30" as="geometry">
            <mxRectangle width="30" height="30" as="alternateBounds" />
          </mxGeometry>
        </mxCell>
        <mxCell id="bkDsG9jTJpN1onc-frGA-111" value="`expired_at` date DEFAULT NULL" style="shape=partialRectangle;overflow=hidden;connectable=0;fillColor=none;align=left;strokeColor=inherit;top=0;left=0;bottom=0;right=0;spacingLeft=6;fontSize=16;" parent="bkDsG9jTJpN1onc-frGA-109" vertex="1">
          <mxGeometry x="30" width="435" height="30" as="geometry">
            <mxRectangle width="435" height="30" as="alternateBounds" />
          </mxGeometry>
        </mxCell>
        <mxCell id="bkDsG9jTJpN1onc-frGA-112" value="" style="shape=tableRow;horizontal=0;startSize=0;swimlaneHead=0;swimlaneBody=0;fillColor=none;collapsible=0;dropTarget=0;points=[[0,0.5],[1,0.5]];portConstraint=eastwest;strokeColor=inherit;top=0;left=0;right=0;bottom=0;fontSize=16;" parent="bkDsG9jTJpN1onc-frGA-75" vertex="1">
          <mxGeometry y="390" width="465" height="30" as="geometry" />
        </mxCell>
        <mxCell id="bkDsG9jTJpN1onc-frGA-113" value="" style="shape=partialRectangle;overflow=hidden;connectable=0;fillColor=none;strokeColor=inherit;top=0;left=0;bottom=0;right=0;fontSize=16;" parent="bkDsG9jTJpN1onc-frGA-112" vertex="1">
          <mxGeometry width="30" height="30" as="geometry">
            <mxRectangle width="30" height="30" as="alternateBounds" />
          </mxGeometry>
        </mxCell>
        <mxCell id="bkDsG9jTJpN1onc-frGA-114" value="`deleted_at` timestamp NULL DEFAULT NULL" style="shape=partialRectangle;overflow=hidden;connectable=0;fillColor=none;align=left;strokeColor=inherit;top=0;left=0;bottom=0;right=0;spacingLeft=6;fontSize=16;" parent="bkDsG9jTJpN1onc-frGA-112" vertex="1">
          <mxGeometry x="30" width="435" height="30" as="geometry">
            <mxRectangle width="435" height="30" as="alternateBounds" />
          </mxGeometry>
        </mxCell>
        <mxCell id="bkDsG9jTJpN1onc-frGA-115" value="" style="shape=tableRow;horizontal=0;startSize=0;swimlaneHead=0;swimlaneBody=0;fillColor=none;collapsible=0;dropTarget=0;points=[[0,0.5],[1,0.5]];portConstraint=eastwest;strokeColor=inherit;top=0;left=0;right=0;bottom=0;fontSize=16;" parent="bkDsG9jTJpN1onc-frGA-75" vertex="1">
          <mxGeometry y="420" width="465" height="30" as="geometry" />
        </mxCell>
        <mxCell id="bkDsG9jTJpN1onc-frGA-116" value="" style="shape=partialRectangle;overflow=hidden;connectable=0;fillColor=none;strokeColor=inherit;top=0;left=0;bottom=0;right=0;fontSize=16;" parent="bkDsG9jTJpN1onc-frGA-115" vertex="1">
          <mxGeometry width="30" height="30" as="geometry">
            <mxRectangle width="30" height="30" as="alternateBounds" />
          </mxGeometry>
        </mxCell>
        <mxCell id="bkDsG9jTJpN1onc-frGA-117" value="`created_at` timestamp NULL DEFAULT NULL" style="shape=partialRectangle;overflow=hidden;connectable=0;fillColor=none;align=left;strokeColor=inherit;top=0;left=0;bottom=0;right=0;spacingLeft=6;fontSize=16;" parent="bkDsG9jTJpN1onc-frGA-115" vertex="1">
          <mxGeometry x="30" width="435" height="30" as="geometry">
            <mxRectangle width="435" height="30" as="alternateBounds" />
          </mxGeometry>
        </mxCell>
        <mxCell id="bkDsG9jTJpN1onc-frGA-118" value="" style="shape=tableRow;horizontal=0;startSize=0;swimlaneHead=0;swimlaneBody=0;fillColor=none;collapsible=0;dropTarget=0;points=[[0,0.5],[1,0.5]];portConstraint=eastwest;strokeColor=inherit;top=0;left=0;right=0;bottom=0;fontSize=16;" parent="bkDsG9jTJpN1onc-frGA-75" vertex="1">
          <mxGeometry y="450" width="465" height="30" as="geometry" />
        </mxCell>
        <mxCell id="bkDsG9jTJpN1onc-frGA-119" value="" style="shape=partialRectangle;overflow=hidden;connectable=0;fillColor=none;strokeColor=inherit;top=0;left=0;bottom=0;right=0;fontSize=16;" parent="bkDsG9jTJpN1onc-frGA-118" vertex="1">
          <mxGeometry width="30" height="30" as="geometry">
            <mxRectangle width="30" height="30" as="alternateBounds" />
          </mxGeometry>
        </mxCell>
        <mxCell id="bkDsG9jTJpN1onc-frGA-120" value="`updated_at` timestamp NULL DEFAULT NULL" style="shape=partialRectangle;overflow=hidden;connectable=0;fillColor=none;align=left;strokeColor=inherit;top=0;left=0;bottom=0;right=0;spacingLeft=6;fontSize=16;" parent="bkDsG9jTJpN1onc-frGA-118" vertex="1">
          <mxGeometry x="30" width="435" height="30" as="geometry">
            <mxRectangle width="435" height="30" as="alternateBounds" />
          </mxGeometry>
        </mxCell>
        <mxCell id="bkDsG9jTJpN1onc-frGA-127" value="" style="edgeStyle=entityRelationEdgeStyle;fontSize=16;html=1;endArrow=ERoneToMany;rounded=0;entryX=1;entryY=0.5;entryDx=0;entryDy=0;exitX=0;exitY=0.5;exitDx=0;exitDy=0;" parent="1" source="bkDsG9jTJpN1onc-frGA-36" target="bkDsG9jTJpN1onc-frGA-8" edge="1">
          <mxGeometry width="100" height="100" relative="1" as="geometry">
            <mxPoint x="80" y="640" as="sourcePoint" />
            <mxPoint x="-90" y="865" as="targetPoint" />
          </mxGeometry>
        </mxCell>
        <mxCell id="bkDsG9jTJpN1onc-frGA-128" value="&lt;font style=&quot;font-size: 21px;&quot;&gt;Many to 1&lt;/font&gt;" style="edgeLabel;html=1;align=center;verticalAlign=middle;resizable=0;points=[];fontSize=21;" parent="bkDsG9jTJpN1onc-frGA-127" vertex="1" connectable="0">
          <mxGeometry x="-0.0453" y="-3" relative="1" as="geometry">
            <mxPoint as="offset" />
          </mxGeometry>
        </mxCell>
        <mxCell id="bkDsG9jTJpN1onc-frGA-130" value="" style="edgeStyle=entityRelationEdgeStyle;fontSize=16;html=1;endArrow=ERoneToMany;rounded=0;entryX=0.988;entryY=0;entryDx=0;entryDy=0;entryPerimeter=0;" parent="1" source="bkDsG9jTJpN1onc-frGA-76" target="bkDsG9jTJpN1onc-frGA-14" edge="1">
          <mxGeometry width="100" height="100" relative="1" as="geometry">
            <mxPoint x="275" y="235" as="sourcePoint" />
            <mxPoint x="-90" y="865" as="targetPoint" />
          </mxGeometry>
        </mxCell>
        <mxCell id="bkDsG9jTJpN1onc-frGA-131" value="&lt;font style=&quot;font-size: 21px;&quot;&gt;Many to 1&lt;/font&gt;" style="edgeLabel;html=1;align=center;verticalAlign=middle;resizable=0;points=[];fontSize=21;" parent="bkDsG9jTJpN1onc-frGA-130" vertex="1" connectable="0">
          <mxGeometry x="-0.0453" y="-3" relative="1" as="geometry">
            <mxPoint as="offset" />
          </mxGeometry>
        </mxCell>
      </root>
    </mxGraphModel>
  </diagram>
</mxfile>
